<svg xmlns="http://www.w3.org/2000/svg" version="1.1" xmlns:xlink="http://www.w3.org/1999/xlink" xmlns:svgjs="http://svgjs.dev/svgjs" width="100%" height="100%" viewBox="0 0 1000 600"><rect width="1000" height="600" x="0" y="0" fill="#f4a896"/><g><circle r="166.66666666666666" cx="392.40856424967444" cy="414.63078014582663" fill="#74ebd5" transform="matrix(0.5537296837341736,0,0,0.5537296837341736,0,70.40660870864332)"/><path d="M389.9043485572863 478.12585276704243L389.9043485572863 478.12585276704243Q404.02242327311535 478.12585276704243 410.80926124704854 471.59306755149174Q417.6323924721793 465.06028233594105 417.6323924721793 456.4587818021326L417.6323924721793 456.4587818021326Q417.6323924721793 451.48660638807456 416.0354894194891 447.3128825003616Q414.47487961799646 443.10286536145117 410.95443425183856 439.1831942321207Q407.4339888856807 435.26352310279026 401.66336194527753 431.48902497824986Q395.92902825607194 427.71452685370946 387.291234471066 423.2504569564165L387.291234471066 423.2504569564165Q376.5847253678023 417.77017602559334 368.8905561139315 412.7980006115353Q361.1600936088631 407.8258251974773 356.22421144600264 402.3455442666542Q351.2520360319446 396.8652633358311 348.7478016993168 390.5865308786629Q346.2798606178865 384.30779842149474 346.2798606178865 376.4684561628339L346.2798606178865 376.4684561628339Q346.2798606178865 367.0685041026803 349.6914262304519 360.13649312395705Q353.0666985918198 353.24077539643133 359.20025804419794 348.6678257455459Q365.37011074777365 344.0948760946604 373.7175585231995 341.8446945204151Q382.06500629862546 339.63080619736735 392.263409885124 339.63080619736735L392.263409885124 339.63080619736735Q412.66021705812125 339.63080619736735 432.0045199463908 349.57515702548346L432.0045199463908 349.57515702548346L432.0045199463908 383.0012413783846L419.70110779043705 383.0012413783846L413.9667741012314 354.801385197924Q402.46181347162263 349.3211042671009 389.65029579890376 349.3211042671009L389.65029579890376 349.3211042671009Q368.2372775923764 349.3211042671009 368.2372775923764 366.8144513442978L368.2372775923764 366.8144513442978Q368.2372775923764 376.21440340445133 375.27816832469216 384.05374566311224Q382.35535230820545 391.8930879217731 398.03403682552715 399.73243018043394L398.03403682552715 399.73243018043394Q408.7405459287908 405.212711111257 416.83394094583423 410.18488652531505Q424.9273359628776 415.1570619393731 430.2987371401082 420.63734287019616Q435.63384506614125 426.1176238010193 438.39213215715154 432.54152926297746Q441.1504192481619 438.9291414737382 441.1504192481619 447.02253649078153L441.1504192481619 447.02253649078153Q441.1504192481619 456.16843579255254 437.23074811883146 464.0077780512134Q433.311076989501 471.84712030987424 426.23389300598774 477.4725742454874Q419.19300227367194 483.09802818110046 409.2486514455559 486.36442078887586Q399.3405938686373 489.6308133966512 387.291234471066 489.6308133966512L387.291234471066 489.6308133966512Q364.0635537046635 489.6308133966512 343.66674653166626 479.6864625685351L343.66674653166626 479.6864625685351L343.66674653166626 446.260378215634L355.9338654364226 446.260378215634L361.7044923768257 472.1374663194543Q375.02411556630966 478.12585276704243 389.9043485572863 478.12585276704243Z " fill="#f4a896" transform="matrix(0.5537296837341736,0,0,0.5537296837341736,0,70.40660870864332)"/><path d="M655.614915577955 434.5658073131487L655.614915577955 434.5658073131487Q655.614915577955 441.80612115435673 658.2600435679431 444.79878420872274Q660.905171557931 447.7721397595122 666.6008851130147 447.7721397595122L666.6008851130147 447.7721397595122Q670.7713058855504 447.7721397595122 675.8491793261844 445.20424178383035Q680.9077452632417 442.6363438081486 685.2326260643899 437.77085290685676L685.2326260643899 437.77085290685676L685.2326260643899 416.08852639038577Q670.9064584105863 416.9187490441776 663.2606869942706 421.1663998310197Q655.614915577955 425.3947431142852 655.614915577955 434.5658073131487ZM685.2326260643899 411.0878829640581L685.2326260643899 411.0878829640581L685.2326260643899 403.98272164788597Q685.2326260643899 392.1665294590344 682.5102680600958 386.81835096832873Q679.8072175593782 381.47017247762307 673.5515864005744 381.47017247762307L673.5515864005744 381.47017247762307Q667.1608027167347 381.47017247762307 663.2606869942706 385.5633632358527Q659.3605712718066 389.67586149765884 657.9704310142947 399.5419958252783L657.9704310142947 399.5419958252783Q653.5297051916871 400.50737100410606 651.4444948054191 400.50737100410606L651.4444948054191 400.50737100410606Q646.0190863004073 400.50737100410606 645.0537111215795 396.6265627852186L645.0537111215795 396.6265627852186Q645.0537111215795 387.16588603270674 653.2594001416153 381.60532500265896Q661.4457816580746 376.0447639726112 673.6867389256103 376.0447639726112L673.6867389256103 376.0447639726112Q687.1633764220455 376.0447639726112 692.8011674663994 381.5474024919293Q698.4389585107535 387.03073350767085 698.4389585107535 401.202441132862L698.4389585107535 401.202441132862L698.4389585107535 440.4159808968448Q698.4389585107535 443.89133154062466 698.8444160858611 446.3819995020002L698.8444160858611 446.3819995020002L709.8303856209208 447.7721397595122Q710.3903032246409 449.85735014578006 709.8303856209208 453.0623957394882L709.8303856209208 453.0623957394882Q699.9642512933012 453.48716081817236 688.8431292332057 455.0124536007202L688.8431292332057 455.0124536007202Q687.7232940257655 453.89261839328003 687.4529889756939 452.2321730856963L687.4529889756939 452.2321730856963L686.7579188469379 442.6363438081486Q675.2120317081581 455.842676254512 661.0403240829669 455.842676254512L661.0403240829669 455.842676254512Q652.2747174592109 455.842676254512 647.3513040471896 450.84203282818436Q642.4085831315915 445.8413894018567 642.4085831315915 437.3460878281726L642.4085831315915 437.3460878281726Q642.4085831315915 424.5645204604933 654.012392781101 418.0385842516178Q665.6162024306104 411.49334053916573 685.2326260643899 411.0878829640581ZM737.4980382461238 362.14336139749173L737.4980382461238 362.14336139749173L737.4980382461238 382.0300900813432L757.0951543763268 382.0300900813432Q757.3654594263986 383.6905353889269 757.3654594263986 384.52075804271874L757.3654594263986 384.52075804271874Q757.3654594263986 385.77574577519476 757.0951543763268 387.4554985863551L757.0951543763268 387.4554985863551L737.4980382461238 390.3709316264148L737.4980382461238 428.59978870799324Q737.4980382461238 438.89068811429695 739.3708660930496 443.1190313975624Q741.2436939399754 447.3666821844045 745.2789621874754 447.3666821844045L745.2789621874754 447.3666821844045Q748.8894653562911 447.3666821844045 756.5352367726068 444.45124914434473L756.5352367726068 444.45124914434473Q757.9253770301187 445.68692937324425 758.4852946338387 449.1622800170241L758.4852946338387 449.1622800170241Q754.314873861303 451.6722554819762 752.1524334607288 452.85001320014607Q750.0093005637312 454.02777091831587 746.7463324592935 454.935223586414Q743.4640568512792 455.842676254512 739.8535536824635 455.842676254512L739.8535536824635 455.842676254512Q732.9028523949037 455.842676254512 728.5200490830258 450.49449776380635Q724.1565532747244 445.1463192731007 724.1565532747244 434.160349738041L724.1565532747244 434.160349738041L724.1565532747244 388.69117881525455L714.4255714721407 387.4554985863551Q714.1359589184925 386.0653583288431 714.1359589184925 385.0806756464388L714.1359589184925 385.0806756464388Q714.1359589184925 383.9801479425752 714.4255714721407 382.0300900813432L714.4255714721407 382.0300900813432Q718.3063796910283 381.3350199525872 721.1638902203584 379.59734463069725Q724.002093246112 377.8596693088073 725.952151107344 374.7318537294055Q727.902208968576 371.6040381500036 728.9448141617099 369.17129269935765Q729.987419354844 366.7385472487118 731.5127121373918 362.14336139749173L731.5127121373918 362.14336139749173Q732.7676998698678 361.7379038223841 734.582605206064 361.7379038223841L734.582605206064 361.7379038223841Q736.2430505136476 361.7379038223841 737.4980382461238 362.14336139749173ZM824.652109390692 413.86816347908194L824.652109390692 413.86816347908194L780.9978438041016 413.86816347908194Q779.7621635752022 449.31674004563655 802.274712745465 449.31674004563655L802.274712745465 449.31674004563655Q811.8705420230127 449.31674004563655 821.8718288756681 440.82143847195243L821.8718288756681 440.82143847195243Q823.957039261936 442.0764262044285 825.0768744693762 445.1463192731007L825.0768744693762 445.1463192731007Q815.4810451918285 455.842676254512 800.7494199629172 455.842676254512L800.7494199629172 455.842676254512Q766.8261361789105 455.842676254512 766.8261361789105 415.9533738653499L766.8261361789105 415.9533738653499Q766.8261361789105 397.0320203603262 776.8274230315658 386.54804591825695Q786.8480173877978 376.0447639726112 800.1895023591971 376.0447639726112L800.1895023591971 376.0447639726112Q814.7859750630726 376.0447639726112 821.1767587469121 386.200510853879Q827.5675424307517 396.33695023157026 827.5675424307517 412.6131757466059L827.5675424307517 412.6131757466059Q826.1774021732398 413.71370345046955 824.652109390692 413.86816347908194ZM799.9191973091254 381.60532500265896L799.9191973091254 381.60532500265896Q792.6788834679173 381.60532500265896 787.6010100272833 389.1159438939388Q782.542444090226 396.6265627852186 781.4226088827859 408.3076024490342L781.4226088827859 408.3076024490342L798.6642095766492 408.3076024490342Q808.955108982953 408.3076024490342 813.3958348055605 407.05261471655814L813.3958348055605 407.05261471655814Q813.3958348055605 395.6418801028143 809.9204841617807 388.6332563045249Q806.4451335180008 381.60532500265896 799.9191973091254 381.60532500265896ZM860.9309086110384 364.9236419125156L860.9309086110384 364.9236419125156L860.9309086110384 445.9765419268926L872.2064906997464 448.06175231316047Q872.74710079989 450.2821152244643 872.2064906997464 453.62231334320825L872.2064906997464 453.62231334320825Q863.4408840759905 453.1975482645241 854.269819877127 453.1975482645241L854.269819877127 453.1975482645241Q847.8790361932873 453.1975482645241 836.1979965294718 453.48716081817236L836.1979965294718 453.48716081817236Q835.3677738756799 450.84203282818436 836.1979965294718 448.06175231316047L836.1979965294718 448.06175231316047L847.1839660645314 446.53645953061266Q847.724576164675 438.89068811429695 847.724576164675 428.870093758065L847.724576164675 428.870093758065L847.724576164675 349.2266415047766L836.3331490545077 347.83650124726466Q835.7732314507875 345.75129086099673 836.3331490545077 342.54624526728867L836.3331490545077 342.54624526728867Q845.9289783320554 341.85117513853265 860.2358384822825 339.6308122272289L860.2358384822825 339.6308122272289Q861.4908262147585 341.02095248474086 861.6259787397944 342.4110927422528L861.6259787397944 342.4110927422528Q860.9309086110384 346.0215959110685 860.9309086110384 364.9236419125156ZM902.4999638113609 364.9236419125156L902.4999638113609 364.9236419125156L902.4999638113609 445.9765419268926L913.7562383964922 448.06175231316047Q914.3161560002123 450.2821152244643 913.7562383964922 453.62231334320825L913.7562383964922 453.62231334320825Q905.0099392763129 453.1975482645241 895.8388750774494 453.1975482645241L895.8388750774494 453.1975482645241Q889.4287838900332 453.1975482645241 877.7670517297942 453.48716081817236L877.7670517297942 453.48716081817236Q876.9175215724258 450.84203282818436 877.7670517297942 448.06175231316047L877.7670517297942 448.06175231316047L888.7337137612773 446.53645953061266Q889.2936313649974 438.89068811429695 889.2936313649974 428.870093758065L889.2936313649974 428.870093758065L889.2936313649974 349.2266415047766L877.90220425483 347.83650124726466Q877.3422866511099 345.75129086099673 877.90220425483 342.54624526728867L877.90220425483 342.54624526728867Q887.4980335323778 341.85117513853265 901.8048936826049 339.6308122272289L901.8048936826049 339.6308122272289Q903.0598814150809 341.02095248474086 903.1950339401168 342.4110927422528L903.1950339401168 342.4110927422528Q902.4999638113609 346.0215959110685 902.4999638113609 364.9236419125156ZM945.5943117942311 401.35690116147447L945.5943117942311 401.35690116147447L945.5943117942311 445.9765419268926L956.8505863793625 448.06175231316047Q957.005046407975 448.7568224419164 957.0629689187045 449.31674004563655Q957.1401989330109 449.85735014578006 957.1401989330109 450.552420274536L957.1401989330109 450.552420274536Q957.1401989330109 451.24749040329203 957.0629689187045 452.0197905463542Q957.005046407975 452.7920906894164 956.8505863793625 453.62231334320825L956.8505863793625 453.62231334320825Q948.1042872591831 453.1975482645241 938.9332230603197 453.1975482645241L938.9332230603197 453.1975482645241Q935.7281774666117 453.1975482645241 931.2102216296978 453.2747782788303Q926.6922657927839 453.3327007895599 920.8613997126644 453.48716081817236L920.8613997126644 453.48716081817236Q920.4366346339802 452.2321730856963 920.4366346339802 450.84203282818436L920.4366346339802 450.84203282818436Q920.4366346339802 449.58704509570833 920.8613997126644 448.06175231316047L920.8613997126644 448.06175231316047L931.8280617441475 446.53645953061266Q932.1176742977958 442.6363438081486 932.2528268228317 438.25354049627066Q932.3879793478675 433.87073718439274 932.3879793478675 428.870093758065L932.3879793478675 428.870093758065L932.3879793478675 399.2716907752066Q932.3879793478675 390.0813190727665 931.98252177276 385.64059325015893L931.98252177276 385.64059325015893L920.9965522377003 384.25045299264696Q920.706939684052 383.555382863891 920.706939684052 381.8949375563073L920.706939684052 381.8949375563073Q920.706939684052 381.1998674275513 920.706939684052 380.5047972987953Q920.706939684052 379.80972717003937 920.9965522377003 378.96019701267096L920.9965522377003 378.96019701267096Q930.4379214866356 378.41958691252745 944.8992416654751 376.0447639726112L944.8992416654751 376.0447639726112Q946.1542293979511 377.4349042301231 946.2893819229871 378.82504448763507L946.2893819229871 378.82504448763507Q945.5943117942311 382.72516021009915 945.5943117942311 401.35690116147447ZM925.302125535272 351.7173094661522L925.302125535272 351.7173094661522Q925.0318204852001 351.0222393373962 925.0318204852001 350.26924669791055Q925.0318204852001 349.49694655484836 925.0318204852001 348.8018764260924L925.0318204852001 348.8018764260924Q925.0318204852001 345.0562207322408 928.1596360646022 342.7586278066308Q931.287451644004 340.46103488102074 935.8633299916474 340.46103488102074L935.8633299916474 340.46103488102074Q940.1689032892191 340.46103488102074 942.8912612935134 343.0289328567025Q945.5943117942311 345.5968308323843 945.5943117942311 350.0568641585685L945.5943117942311 350.0568641585685Q945.5943117942311 353.6673673273842 942.4664962148292 355.887730238688Q939.3386806354273 358.1080931499918 934.4731897341355 358.1080931499918L934.4731897341355 358.1080931499918Q931.1329916153916 358.1080931499918 928.5650936397097 356.44764784240806Q925.9971956640279 354.78720253482436 925.302125535272 351.7173094661522ZM986.1979918157258 362.14336139749173L986.1979918157258 362.14336139749173L986.1979918157258 382.0300900813432L1005.7951079459289 382.0300900813432Q1006.0654129960005 383.6905353889269 1006.0654129960005 384.52075804271874L1006.0654129960005 384.52075804271874Q1006.0654129960005 385.77574577519476 1005.7951079459289 387.4554985863551L1005.7951079459289 387.4554985863551L986.1979918157258 390.3709316264148L986.1979918157258 428.59978870799324Q986.1979918157258 438.89068811429695 988.0708196626515 443.1190313975624Q989.9436475095774 447.3666821844045 993.9789157570774 447.3666821844045L993.9789157570774 447.3666821844045Q997.5894189258931 447.3666821844045 1005.2351903422087 444.45124914434473L1005.2351903422087 444.45124914434473Q1006.6253305997207 445.68692937324425 1007.1852482034408 449.1622800170241L1007.1852482034408 449.1622800170241Q1003.0148274309049 451.6722554819762 1000.8523870303309 452.85001320014607Q998.7092541333332 454.02777091831587 995.4269785253189 454.935223586414Q992.1640104208811 455.842676254512 988.5535072520654 455.842676254512L988.5535072520654 455.842676254512Q981.6028059645057 455.842676254512 977.2200026526277 450.49449776380635Q972.8371993407499 445.1463192731007 972.8371993407499 434.160349738041L972.8371993407499 434.160349738041L972.8371993407499 388.69117881525455L963.1062175381662 387.4554985863551Q962.8359124880944 386.0653583288431 962.8359124880944 385.0806756464388L962.8359124880944 385.0806756464388Q962.8359124880944 383.9801479425752 963.1062175381662 382.0300900813432L963.1062175381662 382.0300900813432Q967.0063332606303 381.3350199525872 969.8638437899604 379.59734463069725Q972.702046815714 377.8596693088073 974.652104676946 374.7318537294055Q976.602162538178 371.6040381500036 977.644767731312 369.17129269935765Q978.687372924446 366.7385472487118 980.2126657069938 362.14336139749173L980.2126657069938 362.14336139749173Q981.4676534394698 361.7379038223841 983.2632512720893 361.7379038223841L983.2632512720893 361.7379038223841Q984.9430040832497 361.7379038223841 986.1979918157258 362.14336139749173ZM1073.352062960294 413.86816347908194L1073.352062960294 413.86816347908194L1029.6977973737037 413.86816347908194Q1028.4428096412275 449.31674004563655 1050.974666315067 449.31674004563655L1050.974666315067 449.31674004563655Q1060.5704955926146 449.31674004563655 1070.57178244527 440.82143847195243L1070.57178244527 440.82143847195243Q1072.656992831538 442.0764262044285 1073.7768280389782 445.1463192731007L1073.7768280389782 445.1463192731007Q1064.1809987614306 455.842676254512 1049.449373532519 455.842676254512L1049.449373532519 455.842676254512Q1015.5260897485125 455.842676254512 1015.5260897485125 415.9533738653499L1015.5260897485125 415.9533738653499Q1015.5260897485125 397.0320203603262 1025.5273766011678 386.54804591825695Q1035.5479709573997 376.0447639726112 1048.8894559287992 376.0447639726112L1048.8894559287992 376.0447639726112Q1063.4859286326746 376.0447639726112 1069.8767123165142 386.200510853879Q1076.2674960003537 396.33695023157026 1076.2674960003537 412.6131757466059L1076.2674960003537 412.6131757466059Q1074.8773557428417 413.71370345046955 1073.352062960294 413.86816347908194ZM1048.5998433751508 381.60532500265896L1048.5998433751508 381.60532500265896Q1041.3788370375194 381.60532500265896 1036.3009635968854 389.1159438939388Q1031.2230901562516 396.6265627852186 1030.122562452388 408.3076024490342L1030.122562452388 408.3076024490342L1047.3641631462513 408.3076024490342Q1057.6357550489784 408.3076024490342 1062.0957883751626 407.05261471655814L1062.0957883751626 407.05261471655814Q1062.0957883751626 395.6418801028143 1058.6204377313827 388.6332563045249Q1055.1450870876029 381.60532500265896 1048.5998433751508 381.60532500265896ZM1149.8097771234509 365.0587944375515L1149.8097771234509 365.0587944375515L1149.8097771234509 446.9419171057203L1161.066051708582 448.33205736323225Q1161.6259693123025 450.4172677495001 1161.066051708582 453.48716081817236L1161.066051708582 453.48716081817236Q1152.319752588403 453.0623957394882 1142.0288531820993 453.0623957394882L1142.0288531820993 453.0623957394882Q1134.5182342908195 453.0623957394882 1122.8371946270038 453.3327007895599L1122.8371946270038 453.3327007895599Q1122.0069719732119 450.84203282818436 1122.8371946270038 448.33205736323225L1122.8371946270038 448.33205736323225L1134.3830817657836 446.67161205564855Q1134.9429993695037 441.3813560756725 1134.9429993695037 430.39538654061283L1134.9429993695037 430.39538654061283L1134.9429993695037 348.5315713760206L1123.6674172807957 347.1414311185087Q1123.1268071806521 345.0562207322408 1123.6674172807957 341.98632766356855L1123.6674172807957 341.98632766356855Q1131.3131886971114 342.54624526728867 1142.7239233108553 342.54624526728867L1142.7239233108553 342.54624526728867Q1152.8603626885465 342.54624526728867 1161.8962743623742 342.12148018860444L1161.8962743623742 342.12148018860444Q1162.7458045197427 344.6314556535566 1161.8962743623742 347.1414311185087L1161.8962743623742 347.1414311185087L1150.369694727171 348.8018764260924Q1149.8097771234509 354.0921324060684 1149.8097771234509 365.0587944375515ZM1275.7526229533178 428.870093758065L1275.7526229533178 403.4421115477424Q1275.7526229533178 384.11530046761106 1263.376513160746 384.11530046761106L1263.376513160746 384.11530046761106Q1252.8153087043706 384.11530046761106 1243.3739394554352 398.71177317148647L1243.3739394554352 398.71177317148647L1243.3739394554352 445.9765419268926L1254.630214040567 448.06175231316047Q1255.1901316442868 450.2821152244643 1254.630214040567 453.62231334320825L1254.630214040567 453.62231334320825Q1245.864607416811 453.1975482645241 1236.8286957429832 453.1975482645241L1236.8286957429832 453.1975482645241Q1230.4379120591436 453.1975482645241 1218.756872395328 453.48716081817236L1218.756872395328 453.48716081817236Q1217.926649741536 450.84203282818436 1218.756872395328 448.06175231316047L1218.756872395328 448.06175231316047L1229.7428419303876 446.53645953061266Q1230.3027595341077 438.89068811429695 1230.3027595341077 428.870093758065L1230.3027595341077 428.870093758065L1230.3027595341077 403.4421115477424Q1230.3027595341077 384.11530046761106 1217.926649741536 384.11530046761106L1217.926649741536 384.11530046761106Q1211.6710185827324 384.11530046761106 1206.9406802064764 387.9381861757689Q1202.2103418302204 391.7610718839268 1197.209698403893 399.8123008753501L1197.209698403893 399.8123008753501L1197.209698403893 445.9765419268926L1208.4659729890243 448.06175231316047Q1209.0258905927444 450.2821152244643 1208.4659729890243 453.62231334320825L1208.4659729890243 453.62231334320825Q1199.719673868845 453.1975482645241 1190.6837621950172 453.1975482645241L1190.6837621950172 453.1975482645241Q1184.2929785111778 453.1975482645241 1172.6119388473621 453.48716081817236L1172.6119388473621 453.48716081817236Q1171.7817161935702 450.84203282818436 1172.6119388473621 448.06175231316047L1172.6119388473621 448.06175231316047L1183.5979083824218 446.53645953061266Q1184.1385184825651 438.89068811429695 1184.1385184825651 428.870093758065L1184.1385184825651 428.870093758065L1184.1385184825651 390.7763892015225Q1184.1385184825651 387.9961086864986 1183.7330609074577 385.64059325015893L1183.7330609074577 385.64059325015893L1172.7470913723978 384.25045299264696Q1172.187173768678 382.165242606379 1172.7470913723978 378.96019701267096L1172.7470913723978 378.96019701267096Q1182.0533080962973 378.265126883915 1196.5146282751368 376.0447639726112L1196.5146282751368 376.0447639726112Q1197.769616007613 377.4349042301231 1197.9047685326486 378.82504448763507L1197.9047685326486 378.82504448763507Q1197.209698403893 382.4355476564508 1197.209698403893 391.2011542802067L1197.209698403893 391.2011542802067Q1208.1956679389525 376.0447639726112 1221.961917989036 376.0447639726112L1221.961917989036 376.0447639726112Q1229.1829243266675 376.0447639726112 1235.1682504353994 379.73249715573314Q1241.134269040555 383.4202303388551 1242.814021851715 391.0660017551708L1242.814021851715 391.0660017551708Q1253.9351439118109 376.0447639726112 1267.411781408246 376.0447639726112L1267.411781408246 376.0447639726112Q1275.8877754783534 376.0447639726112 1282.3557891764992 381.0454073989389Q1288.823802874645 386.0653583288431 1288.823802874645 396.4914102601827L1288.823802874645 396.4914102601827L1288.823802874645 445.9765419268926L1300.0800774597765 448.06175231316047Q1300.6399950634968 450.2821152244643 1300.0800774597765 453.62231334320825L1300.0800774597765 453.62231334320825Q1291.3337783395973 453.1975482645241 1282.2978666657696 453.1975482645241L1282.2978666657696 453.1975482645241Q1275.8877754783534 453.1975482645241 1264.2260433181145 453.48716081817236L1264.2260433181145 453.48716081817236Q1263.376513160746 450.84203282818436 1264.2260433181145 448.06175231316047L1264.2260433181145 448.06175231316047L1275.1927053495974 446.53645953061266Q1275.7526229533178 438.89068811429695 1275.7526229533178 428.870093758065L1275.7526229533178 428.870093758065ZM1320.79702879742 434.5658073131487L1320.79702879742 434.5658073131487Q1320.79702879742 441.80612115435673 1323.4421567874078 444.79878420872274Q1326.087284777396 447.7721397595122 1331.7829983324796 447.7721397595122L1331.7829983324796 447.7721397595122Q1335.9534191050152 447.7721397595122 1341.0312925456492 445.20424178383035Q1346.0898584827066 442.6363438081486 1350.414739283855 437.77085290685676L1350.414739283855 437.77085290685676L1350.414739283855 416.08852639038577Q1336.0885716300513 416.9187490441776 1328.4428002137356 421.1663998310197Q1320.79702879742 425.3947431142852 1320.79702879742 434.5658073131487ZM1350.414739283855 411.0878829640581L1350.414739283855 411.0878829640581L1350.414739283855 403.98272164788597Q1350.414739283855 392.1665294590344 1347.6923812795608 386.81835096832873Q1344.989330778843 381.47017247762307 1338.7336996200393 381.47017247762307L1338.7336996200393 381.47017247762307Q1332.3429159361997 381.47017247762307 1328.4428002137356 385.5633632358527Q1324.5426844912715 389.67586149765884 1323.1525442337597 399.5419958252783L1323.1525442337597 399.5419958252783Q1318.711818411152 400.50737100410606 1316.626608024884 400.50737100410606L1316.626608024884 400.50737100410606Q1311.2011995198723 400.50737100410606 1310.2358243410445 396.6265627852186L1310.2358243410445 396.6265627852186Q1310.2358243410445 387.16588603270674 1318.44151336108 381.60532500265896Q1326.6278948775393 376.0447639726112 1338.8688521450752 376.0447639726112L1338.8688521450752 376.0447639726112Q1352.3454896415103 376.0447639726112 1357.9832806858644 381.5474024919293Q1363.6210717302183 387.03073350767085 1363.6210717302183 401.202441132862L1363.6210717302183 401.202441132862L1363.6210717302183 440.4159808968448Q1363.6210717302183 443.89133154062466 1364.026529305326 446.3819995020002L1364.026529305326 446.3819995020002L1375.0124988403857 447.7721397595122Q1375.5724164441058 449.85735014578006 1375.0124988403857 453.0623957394882L1375.0124988403857 453.0623957394882Q1365.146364512766 453.48716081817236 1354.0252424526707 455.0124536007202L1354.0252424526707 455.0124536007202Q1352.9054072452304 453.89261839328003 1352.6351021951587 452.2321730856963L1352.6351021951587 452.2321730856963L1351.9400320664026 442.6363438081486Q1340.394144927623 455.842676254512 1326.222437302432 455.842676254512L1326.222437302432 455.842676254512Q1317.456830678676 455.842676254512 1312.5334172666544 450.84203282818436Q1307.5906963510565 445.8413894018567 1307.5906963510565 437.3460878281726L1307.5906963510565 437.3460878281726Q1307.5906963510565 424.5645204604933 1319.194506000566 418.0385842516178Q1330.7983156500754 411.49334053916573 1350.414739283855 411.0878829640581ZM1392.949169663005 454.587688522036L1392.949169663005 454.587688522036Q1394.2041573954812 455.14760612575606 1395.0343800492728 456.96251146195226L1395.0343800492728 456.96251146195226Q1390.439194198053 460.70816715580384 1390.439194198053 468.21878604708365L1390.439194198053 468.21878604708365Q1390.439194198053 474.87987478099507 1396.5596728318208 478.91514302849504Q1402.6801514655886 482.95041127599495 1412.4111332681723 482.95041127599495L1412.4111332681723 482.95041127599495Q1422.4124201208276 482.95041127599495 1429.0928163583158 479.26267809287293Q1435.753905092227 475.574944909751 1435.753905092227 468.9138561758396L1435.753905092227 468.9138561758396Q1435.753905092227 461.6735423346316 1433.1280846058157 458.27542170515795Q1430.4829566158276 454.87730107568433 1422.5475726458635 454.1822309469283L1422.5475726458635 454.1822309469283L1396.5596728318208 451.8074080070121Q1392.2540995342492 451.24749040329203 1389.396589004919 447.2894521700983Q1386.5583859791655 443.33141393690454 1386.5583859791655 439.5857582430529L1386.5583859791655 439.5857582430529L1395.864602703065 424.1397553818091Q1389.4738190192252 420.52925221299336 1386.2108509147874 414.56323360783796Q1382.9285753067732 408.57790749910595 1382.9285753067732 402.3222763403022L1382.9285753067732 402.3222763403022Q1382.9285753067732 390.5060841514507 1391.6941819305289 383.2850778138192Q1400.4597885542848 376.0447639726112 1411.8512156644522 376.0447639726112L1411.8512156644522 376.0447639726112Q1422.8371851995116 376.0447639726112 1431.1780267445836 381.8949375563073L1431.1780267445836 381.8949375563073Q1431.8730968733394 362.83843152624775 1445.3497343697745 362.14336139749173L1445.3497343697745 362.14336139749173Q1448.9602375385905 362.97358405128364 1448.9602375385905 368.12868750622374L1448.9602375385905 368.12868750622374Q1448.9602375385905 370.90896802124763 1448.419627438447 374.2491661399916L1448.419627438447 374.2491661399916Q1442.9942189334351 374.65462371509926 1439.5188682896553 377.7824392945011Q1436.0435176458755 380.910254873903 1434.5182248633273 384.9455231214029L1434.5182248633273 384.9455231214029Q1441.4689261508872 391.89622440896267 1441.4689261508872 402.3222763403022L1441.4689261508872 402.3222763403022Q1441.4689261508872 413.3082458753619 1432.5681670020954 420.6064822272996Q1423.6674078533038 427.9047185792373 1411.8512156644522 427.9047185792373L1411.8512156644522 427.9047185792373Q1405.5955845056485 427.9047185792373 1400.5949410793207 426.224965768077L1400.5949410793207 426.224965768077L1395.864602703065 438.60107556064867L1430.4829566158276 442.0764262044285Q1438.534185607251 443.06110888683276 1442.7818363940928 447.98452229885424Q1447.0294871809351 452.9272432144523 1447.0294871809351 460.8433196808397L1447.0294871809351 460.8433196808397Q1447.0294871809351 474.7447222559592 1437.008892824703 482.17811113293277Q1427.0076059720477 489.6308075134829 1409.90115780322 489.6308075134829L1409.90115780322 489.6308075134829Q1395.7294501780289 489.6308075134829 1387.794066208065 484.47570405854276Q1379.8779897416775 479.3399081071792 1379.8779897416775 470.7094540084592L1379.8779897416775 470.7094540084592Q1379.8779897416775 464.8785879283397 1383.6236454355292 460.3606320914259Q1387.3886086329574 455.842676254512 1392.949169663005 454.587688522036ZM1395.4398376243807 402.3222763403022L1395.4398376243807 402.3222763403022Q1395.4398376243807 410.3928128353021 1399.9577934612944 416.08852639038577Q1404.4757492982083 421.78423994546944 1411.986368189488 421.78423994546944L1411.986368189488 421.78423994546944Q1419.361834555732 421.78423994546944 1424.092172931988 416.14644890111543Q1428.8032038046672 410.527965360338 1428.8032038046672 402.3222763403022L1428.8032038046672 402.3222763403022Q1428.8032038046672 393.4215171915105 1424.1500954427174 387.5134210970847Q1419.4969870807681 381.60532500265896 1411.986368189488 381.60532500265896L1411.986368189488 381.60532500265896Q1404.9005143768925 381.60532500265896 1400.1701760006367 387.59065111139097Q1395.4398376243807 393.55666971654637 1395.4398376243807 402.3222763403022ZM1513.1963019377881 413.86816347908194L1513.1963019377881 413.86816347908194L1469.5420363511978 413.86816347908194Q1468.2870486187217 449.31674004563655 1490.8189052925613 449.31674004563655L1490.8189052925613 449.31674004563655Q1500.3954270665322 449.31674004563655 1510.4160214227643 440.82143847195243L1510.4160214227643 440.82143847195243Q1512.501231809032 442.0764262044285 1513.601759512896 445.1463192731007L1513.601759512896 445.1463192731007Q1504.0252377389247 455.842676254512 1489.2743050064369 455.842676254512L1489.2743050064369 455.842676254512Q1455.3703287260068 455.842676254512 1455.3703287260068 415.9533738653499L1455.3703287260068 415.9533738653499Q1455.3703287260068 397.0320203603262 1465.371615578662 386.54804591825695Q1475.3729024313175 376.0447639726112 1488.7336949062933 376.0447639726112L1488.7336949062933 376.0447639726112Q1503.3301676101687 376.0447639726112 1509.7209512940083 386.200510853879Q1516.1117349778478 396.33695023157026 1516.1117349778478 412.6131757466059L1516.1117349778478 412.6131757466059Q1514.7215947203358 413.71370345046955 1513.1963019377881 413.86816347908194ZM1488.444082352645 381.60532500265896L1488.444082352645 381.60532500265896Q1481.2230760150135 381.60532500265896 1476.1452025743797 389.1159438939388Q1471.0673291337457 396.6265627852186 1469.966801429882 408.3076024490342L1469.966801429882 408.3076024490342L1487.1890946201688 408.3076024490342Q1497.4799940264725 408.3076024490342 1501.9400273526567 407.05261471655814L1501.9400273526567 407.05261471655814Q1501.9400273526567 395.6418801028143 1498.464676708877 388.6332563045249Q1494.989326065097 381.60532500265896 1488.444082352645 381.60532500265896ZM1552.9504518019144 449.72219762074417L1552.9504518019144 449.72219762074417Q1560.4610706931942 449.72219762074417 1564.07157386201 446.2468469769643Q1567.6820770308257 442.7714963331845 1567.6820770308257 438.195617985541L1567.6820770308257 438.195617985541Q1567.6820770308257 435.550489995553 1566.8518543770338 433.33012708424917Q1566.021631723242 431.09045666936885 1564.1488038763164 429.0052462831009Q1562.256668525814 426.920035896833 1559.2060829607183 424.9120555248713Q1556.1554973956227 422.9040751529096 1551.5603115444023 420.52925221299336L1551.5603115444023 420.52925221299336Q1545.8645979893188 417.6138191729336 1541.7520997275128 414.9686911829456Q1537.658908969283 412.3235631929576 1535.013780979295 409.40813015289785Q1532.368652989307 406.492697112838 1531.0557427461013 403.15249899409406Q1529.7428325028955 399.8123008753501 1529.7428325028955 395.6418801028143L1529.7428325028955 395.6418801028143Q1529.7428325028955 390.6412366764866 1531.5384303355152 386.9535034933646Q1533.3533356717112 383.2850778138192 1536.6163037761492 380.85233236317333Q1539.8792718805867 378.41958691252745 1544.3393052067709 377.22252169078104Q1548.7800310293787 376.0447639726112 1554.2054395343905 376.0447639726112L1554.2054395343905 376.0447639726112Q1565.0369490408377 376.0447639726112 1575.3278484471416 381.3350199525872L1575.3278484471416 381.3350199525872L1575.3278484471416 399.11723074659415L1568.801912238266 399.11723074659415L1565.7320191695937 384.11530046761106Q1559.6308480394023 381.1998674275513 1552.8152992768787 381.1998674275513L1552.8152992768787 381.1998674275513Q1541.4045646631348 381.1998674275513 1541.4045646631348 390.5060841514507L1541.4045646631348 390.5060841514507Q1541.4045646631348 395.5067275777784 1545.169527860563 399.6771483503142Q1548.9151835544144 403.8475691228501 1557.2560250994861 408.0179898953859L1557.2560250994861 408.0179898953859Q1562.95173865457 410.93342293544566 1567.276619455718 413.57855092543366Q1571.5821927532897 416.22367891542166 1574.4203957790432 419.13911195548144Q1577.2779063083735 422.0545449955412 1578.7452765801916 425.4719731285914Q1580.1933393484333 428.870093758065 1580.1933393484333 433.1756670556368L1580.1933393484333 433.1756670556368Q1580.1933393484333 438.04115795692854 1578.1081289621652 442.2115787294644Q1576.0229185758976 446.3819995020002 1572.2772628820458 449.3746625563662Q1568.5122996846176 452.36732561073217 1563.241351208218 454.1050009326221Q1557.9510952282421 455.842676254512 1551.5603115444023 455.842676254512L1551.5603115444023 455.842676254512Q1539.184201751831 455.842676254512 1528.3526922453839 450.552420274536L1528.3526922453839 450.552420274536L1528.3526922453839 432.7702094805291L1534.8786284542593 432.7702094805291L1537.9292140193547 446.53645953061266Q1545.0343753355269 449.72219762074417 1552.9504518019144 449.72219762074417Z " fill="#74ebd5" transform="matrix(0.5537296837341736,0,0,0.5537296837341736,0,70.40660870864332)"/></g></svg>